<svg height="384pt" viewBox="0 0 384 384" width="384pt" xmlns="http://www.w3.org/2000/svg"><path d="m320 0h-256c-35.289062 0-64 28.710938-64 64v208c0 61.761719 50.238281 112 112 112h160c61.761719 0 112-50.238281 112-112v-208c0-35.289062-28.710938-64-64-64zm-224 208v-96c0-8.824219 7.175781-16 16-16h18.023438c7.128906 27.574219 32.207031 48 61.976562 48s54.847656-20.425781 61.976562-48h18.023438c8.824219 0 16 7.175781 16 16v144c0 17.648438-14.351562 32-32 32h-16c-11.878906 0-22.152344-6.585938-27.671875-16.214844 24.449219-2.199218 43.671875-22.777344 43.671875-47.785156v-64h-32v16h-64v-16h-32v64c0 25.007812 19.222656 45.585938 43.671875 47.785156-5.519531 9.628906-15.792969 16.214844-27.671875 16.214844h-16c-17.648438 0-32-14.351562-32-32zm64 0h64v16c0 8.824219-7.175781 16-16 16h-32c-8.824219 0-16-7.175781-16-16zm0 112v-2.105469c12.558594-3.246093 23.664062-10.152343 32-19.597656 8.335938 9.445313 19.441406 16.351563 32 19.597656v2.105469c0 17.648438-14.351562 32-32 32s-32-14.351562-32-32zm192-48c0 44.113281-35.886719 80-80 80h-24.65625c5.472656-9.425781 8.65625-20.335938 8.65625-32 35.289062 0 64-28.710938 64-64v-144c0-26.472656-21.527344-48-48-48h-48v16c0 17.648438-14.351562 32-32 32s-32-14.351562-32-32v-16h-48c-26.472656 0-48 21.527344-48 48v144c0 35.289062 28.710938 64 64 64 0 11.664062 3.183594 22.574219 8.65625 32h-24.65625c-44.113281 0-80-35.886719-80-80v-208c0-17.648438 14.351562-32 32-32h256c17.648438 0 32 14.351562 32 32zm0 0"/></svg>